<svg width="17" height="20" viewBox="0 0 17 20" fill="none" xmlns="http://www.w3.org/2000/svg">
<path d="M10.7573 9.02205C11.7635 8.91858 12.9951 8.55622 13.8942 7.52382C14.3808 6.96718 15.1489 6.77201 15.8063 7.03678C16.3498 7.25636 16.7366 7.69778 16.8685 8.2481C16.9986 8.78847 16.8581 9.36137 16.494 9.7802C15.4801 10.9459 14.1793 11.7506 12.6269 12.1721C12.4064 12.2322 12.2243 12.3831 12.1254 12.5869C12.0269 12.7916 12.021 13.0188 12.1113 13.228C12.1131 13.2312 12.1145 13.2352 12.1159 13.2389L14.0908 18.2409C14.1743 18.4533 14.079 18.695 13.8721 18.793C12.2049 19.5828 10.3484 19.9998 8.50134 19.9998C6.6525 19.9998 4.79283 19.5819 3.12427 18.7908C2.91824 18.6927 2.82246 18.451 2.90695 18.2387L4.88365 13.2379C4.88455 13.2339 4.8868 13.2303 4.88816 13.2262C4.97717 13.0175 4.97266 12.7902 4.87416 12.5864C4.77567 12.3818 4.59313 12.2308 4.37264 12.1712C2.82065 11.7488 1.52033 10.9432 0.506006 9.77748C0.14139 9.3573 0.00132599 8.78485 0.131901 8.24403C0.264735 7.69372 0.651482 7.25274 1.19411 7.03406C1.85286 6.7693 2.62095 6.96538 3.10665 7.52202C3.60636 8.09627 4.20953 8.46361 4.81993 8.69404C5.1484 8.81784 5.49135 8.8987 5.83834 8.95021L6.19979 9.00353C7.71021 9.22673 9.24503 9.23305 10.7573 9.02205Z" fill="#414249"/>
<path d="M14.255 2.46139L13.2596 0.468426C13.1367 0.224897 12.9117 0.0595374 12.6443 0.0134521C12.3768 -0.0335368 12.1098 0.0482439 11.9141 0.235748L11.0954 1.01648C10.9129 0.859704 10.7182 0.719184 10.5099 0.599001C10.5099 0.598098 10.509 0.598105 10.509 0.598105C10.4954 0.589521 10.4819 0.580939 10.4674 0.573259C10.4656 0.572355 10.4638 0.571446 10.4624 0.570542C9.86785 0.232132 9.18923 0.0532177 8.50066 0.0532177C7.55727 0.0532177 6.67125 0.375359 5.95964 0.969949L5.19019 0.236203C4.9932 0.0477953 4.72663 -0.0339918 4.45825 0.0129971C4.19304 0.0590823 3.96306 0.229417 3.84288 0.470687L2.84753 2.4623C2.72554 2.70583 2.72915 2.99589 2.85521 3.23671C2.98126 3.47708 3.21803 3.64425 3.48595 3.6813L4.52558 3.83311C4.52197 3.89862 4.5206 3.96503 4.5206 4.03235C4.5206 4.04365 4.52061 4.0536 4.52151 4.06489C4.52739 4.14486 4.67061 5.99415 6.08434 7.18468C6.08434 7.18468 6.08796 7.18829 6.09564 7.19507C6.12456 7.21901 6.15437 7.24297 6.18419 7.26646C6.2113 7.29131 6.23705 7.31525 6.2619 7.33739C6.48239 7.51224 6.90168 7.79508 7.4678 7.96723C8.0258 8.13666 8.72747 8.199 9.52402 7.94147C9.96635 7.79915 10.4367 7.55879 10.9292 7.18468C11.7334 6.56434 12.2774 5.65076 12.4324 4.64953C12.436 4.63507 12.4373 4.61972 12.4391 4.60436C12.4662 4.41505 12.4807 4.22257 12.4807 4.03235C12.4807 3.9709 12.4789 3.90991 12.4757 3.84756L13.6175 3.6822C13.8858 3.64379 14.1217 3.47662 14.2482 3.23671C14.3743 2.99544 14.377 2.70582 14.255 2.46139Z" fill="#414249"/>
</svg>
