<svg width="20" height="20" viewBox="0 0 20 20" fill="none" xmlns="http://www.w3.org/2000/svg">
<path d="M18.8479 13.7326H17.6045C17.1599 13.7326 16.7745 13.9553 16.5825 14.2816C16.5455 14.3444 16.5166 14.4112 16.4949 14.4803L15.0649 14.4532L15.0184 14.4523C14.8693 14.4492 14.7378 14.3769 14.6547 14.2662C14.5358 14.1081 14.4116 13.9531 14.2553 13.832C13.7673 13.4552 13.1506 13.2772 12.5167 13.3468L6.63732 13.9915C6.4435 14.0127 6.29484 14.1699 6.28129 14.362C6.28039 14.3715 6.28039 14.3805 6.28039 14.39C6.28039 14.4749 6.29394 14.5608 6.32195 14.6443C6.34409 14.708 6.37481 14.7699 6.41367 14.8278C6.42225 14.8413 6.43129 14.8549 6.44169 14.868C6.65404 15.1477 6.98973 15.3139 7.33988 15.3139C7.38055 15.3139 7.4221 15.3112 7.46322 15.3072C8.3456 15.2096 9.65314 15.065 10.3426 14.9891C10.5997 14.9606 10.8301 15.1459 10.8581 15.4029C10.8861 15.6596 10.7018 15.89 10.4456 15.9184C9.7566 15.9948 8.44907 16.1389 7.56805 16.2361C7.49486 16.2447 7.41669 16.2487 7.34034 16.2487C6.70058 16.2487 6.08701 15.9447 5.69756 15.4337C5.61262 15.3216 5.54124 15.2001 5.48612 15.0709C5.46804 15.0293 5.45132 14.9859 5.43686 14.9425C5.37587 14.7596 5.34606 14.5752 5.34606 14.39C5.34606 14.3886 5.34606 14.3873 5.34606 14.3855C5.34696 14.1148 5.20916 13.8632 4.97015 13.7358L3.64906 13.0309C2.8358 12.5977 1.89108 12.458 0.987461 12.6383C0.633243 12.7088 0.329628 12.9297 0.153874 13.2451C-0.0187164 13.5537 -0.0476404 13.9192 0.0747996 14.2477C0.215764 14.6281 0.485047 14.9547 0.831132 15.1662L5.94334 18.2922C6.36488 18.5498 6.84742 18.6858 7.34034 18.6858H16.4935C16.5071 18.7296 16.5224 18.7725 16.5423 18.8132C16.7158 19.1805 17.127 19.4385 17.6054 19.4385H18.8488C19.4836 19.4385 20 18.9826 20 18.4219V14.7483C19.9991 14.1885 19.4822 13.7326 18.8479 13.7326Z" fill="#414249"/>
<path d="M10.1309 11.2554C10.2678 11.4135 10.4585 11.5002 10.6677 11.5002H10.6704C10.8819 11.4993 11.0725 11.4108 11.2094 11.2509L16.0745 5.54723C16.8308 4.65943 17.0124 3.43863 16.548 2.36017C16.0894 1.2948 15.1307 0.624767 13.9853 0.566032C13.923 0.563321 13.8606 0.561523 13.7983 0.561523C12.7144 0.561523 11.6978 1.0418 11.0084 1.88035C10.9117 1.99873 10.7666 2.06649 10.6139 2.06649C10.4603 2.06649 10.3153 1.99873 10.2186 1.88035C9.53004 1.0418 8.51301 0.561523 7.42868 0.561523C7.37265 0.561523 7.31798 0.562425 7.26286 0.565136C6.11843 0.61619 5.1606 1.28531 4.70201 2.35384C4.23303 3.44541 4.4219 4.67568 5.19358 5.56529L10.1309 11.2554Z" fill="#414249"/>
</svg>
