<svg width="24" height="18" viewBox="0 0 24 18" fill="none" xmlns="http://www.w3.org/2000/svg">
<path d="M23.9572 9.50592C23.9539 9.49074 23.949 9.47557 23.9442 9.46093C23.9344 9.43111 23.9208 9.40291 23.9073 9.3758C23.8119 9.19959 23.6275 9.08628 23.422 9.08628H22.5616H20.5767C20.0161 9.08628 19.5428 8.74525 19.5428 8.34133V7.1442H21.6611H22.0129C22.2016 7.1442 22.3767 7.04769 22.4781 6.88938C22.5795 6.73106 22.5925 6.53154 22.5134 6.3613L21.5195 4.21752C21.345 3.84342 20.9649 3.60107 20.5518 3.60107H14.3362V1.79942C14.3362 1.21061 13.858 0.732422 13.2692 0.732422H1.06701C0.478201 0.732422 0 1.21061 0 1.79942V14.675C0 15.2638 0.478201 15.7426 1.06701 15.7426H3.45908C3.42981 15.5631 3.41409 15.3793 3.41409 15.1917C3.41409 13.3028 4.95224 11.7641 6.84172 11.7641C8.73121 11.7641 10.2672 13.3022 10.2672 15.1917C10.2672 15.3793 10.2515 15.5631 10.2222 15.7426H14.3878C14.3585 15.5631 14.3427 15.3793 14.3427 15.1917C14.3427 13.3028 15.8809 11.7641 17.7704 11.7641C19.6599 11.7641 21.1959 13.3022 21.1959 15.1917C21.1959 15.3793 21.1801 15.5631 21.1509 15.7426H22.9325C23.5213 15.7426 24 15.2633 24 14.675V9.80249C24 9.7011 23.9864 9.6008 23.9572 9.50592Z" fill="#414249"/>
<path d="M6.84129 17.2678C7.98873 17.2678 8.91892 16.3376 8.91892 15.1902C8.91892 14.0427 7.98873 13.1125 6.84129 13.1125C5.69386 13.1125 4.76367 14.0427 4.76367 15.1902C4.76367 16.3376 5.69386 17.2678 6.84129 17.2678Z" fill="#414249"/>
<path d="M17.77 17.2678C18.9174 17.2678 19.8476 16.3376 19.8476 15.1902C19.8476 14.0427 18.9174 13.1125 17.77 13.1125C16.6226 13.1125 15.6924 14.0427 15.6924 15.1902C15.6924 16.3376 16.6226 17.2678 17.77 17.2678Z" fill="#414249"/>
</svg>
