<svg width="17" height="18" viewBox="0 0 17 18" fill="none" xmlns="http://www.w3.org/2000/svg">
<path d="M16.3351 6.23422H0.665039C1.80734 3.01044 4.88364 0.701416 8.50055 0.701416C12.1166 0.701416 15.1928 3.01044 16.3351 6.23422Z" fill="#414249"/>
<path d="M16.8113 9.01251C16.8113 9.97792 16.6467 10.904 16.344 11.7658H0.655811C0.353158 10.904 0.188477 9.97747 0.188477 9.01251C0.188477 8.03804 0.355881 7.10294 0.664868 6.23389H16.335C16.6435 7.10294 16.8113 8.0385 16.8113 9.01251Z" fill="#F21616"/>
<path d="M16.3444 11.7661C15.2786 14.8062 12.4936 17.0388 9.15542 17.2989H7.84575C4.50706 17.0393 1.7221 14.8067 0.65625 11.7661H16.3444Z" fill="#FAE41D"/>
</svg>
